<?xml version="1.0" standalone="no"?><!DOCTYPE svg PUBLIC "-//W3C//DTD SVG 1.1//EN" "http://www.w3.org/Graphics/SVG/1.1/DTD/svg11.dtd"><svg t="1694835464593" class="icon" viewBox="0 0 1024 1024" version="1.1" xmlns="http://www.w3.org/2000/svg" p-id="2452" xmlns:xlink="http://www.w3.org/1999/xlink" width="200" height="200"><path d="M926.890667 320.426667a148.394667 148.394667 0 0 0 43.648-104.106667c0-84.138667-72.362667-152.533333-161.28-152.533333-71.338667 0-133.290667 45.056-153.898667 107.306666a789.333333 789.333333 0 0 0-21.248-2.56c-30.848-61.226667-92.117333-98.304-94.933333-99.968L477.866667 32l8.789333 46.208a167.466667 167.466667 0 0 0-28.416-9.557333l-93.610667-21.12L415.573333 106.154667h-1.152c-4.992 0-7.808 0.298667-7.808 0.298666l-73.386666 6.912a165.546667 165.546667 0 0 0-118.485334-49.578666c-88.917333 0-161.28 68.394667-161.28 152.490666 0 38.954667 15.914667 76.117333 43.605334 104.149334C53.333333 388.565333 32 480.981333 32 601.642667c0 275.882667 312.618667 390.357333 480 390.357333s480-114.474667 480-390.357333c0-120.704-21.333333-213.077333-65.109333-281.173334zM390.101333 161.962667c2.261333 1.706667 4.437333 3.669333 6.570667 5.930666-9.642667 0.938667-18.986667 2.005333-28.032 3.242667a148.565333 148.565333 0 0 0-20.48-39.978667l41.941333 30.805334zM512 961.066667c-146.048 0-448-98.901333-448-359.424 0-132.437333 26.24-224.042667 75.733333-286.506667-32.768-22.016-54.186667-58.026667-54.186666-98.858667 0-67.114667 57.856-121.557333 129.237333-121.557333 67.84 0 123.306667 49.152 128.682667 111.701333a796.629333 796.629333 0 0 1 102.528-11.221333c-7.082667-23.296-18.432-44.714667-36.608-57.984 0 0 1.834667-0.128 5.077333-0.128 8.576 0 27.264 1.066667 48.384 8.874667 0 0 4.266667-28.629333-11.861333-47.232 0 0 42.026667 9.514667 63.104 36.778666 0 0 12.544-18.048 8.277333-40.618666 0 0 66.730667 39.808 89.685333 102.570666 23.893333 2.048 46.762667 4.992 68.437334 8.96 5.376-62.506667 60.928-111.701333 128.768-111.701333 71.338667 0 129.28 54.442667 129.28 121.6 0 40.789333-21.504 76.8-54.272 98.858667 49.493333 62.421333 75.733333 154.026667 75.733333 286.464 0 260.522667-301.952 359.424-448 359.424z" fill="#000000" fill-opacity=".3" p-id="2453"></path><path d="M174.805333 278.954667c32.512-27.562667 71.808-47.104 117.418667-60.416 0-0.768 0.256-1.450667 0.256-2.218667 0-40.533333-34.773333-73.386667-77.696-73.386667-42.965333 0-77.738667 32.853333-77.738667 73.386667 0 26.666667 15.232 49.792 37.76 62.634667z m674.389334 0c22.528-12.8 37.76-35.968 37.76-62.634667 0-40.533333-34.816-73.386667-77.653334-73.386667-43.008 0-77.738667 32.853333-77.738666 73.386667 0 0.768 0.213333 1.450667 0.213333 2.218667 45.653333 13.354667 84.906667 32.853333 117.418667 60.458666zM512.597333 865.706667c-36.693333 0-66.474667 8.746667-66.474666 19.541333 0 1.450667 0.512 4.266667 1.578666 4.266667h129.536c1.237333 0 1.877333-2.730667 1.877334-4.266667 0-10.752-29.738667-19.541333-66.517334-19.541333z m-138.624-137.813334c0 44.117333 109.866667 83.2 138.026667 83.2 28.16 0 138.026667-39.082667 138.026667-83.2 0-55.338667-61.781333-66.005333-138.026667-66.005333-76.16 0-138.026667 10.666667-138.026667 66.048z" fill="#000000" fill-opacity=".3" p-id="2454"></path><path d="M917.162667 505.813333c-67.669333 0.981333-135.082667 3.797333-202.666667 5.162667a8375.893333 8375.893333 0 0 1-202.581333 2.133333 6308.266667 6308.266667 0 0 1-303.829334-6.229333c-33.706667-1.408-67.413333-3.157333-101.12-5.205333-0.725333-0.042667-1.450667 0.426667-1.578666 1.109333a1.365333 1.365333 0 0 0 1.066666 1.706667l0.256 0.085333c37.717333 8.405333 75.733333 14.634667 113.92 19.626667a17.408 17.408 0 0 0-2.986666 10.496c0 23.424 24.32 42.410667 54.357333 42.410666 29.824 0 53.973333-18.773333 54.272-41.941333a2434.133333 2434.133333 0 0 0 115.797333 5.930667c-66.944 24.405333-138.112 82.218667-138.112 182.784 0 184.106667 83.498667 221.824 208.810667 221.824 125.312 0 208.768-37.717333 208.768-221.824 0-100.48-71.04-158.293333-137.898667-182.741334a2613.546667 2613.546667 0 0 0 114.176-5.589333c0.597333 23.04 24.576 41.557333 54.272 41.557333 29.952 0 54.314667-19.029333 54.314667-42.410666a18.602667 18.602667 0 0 0-2.261333-9.258667c4.096-0.426667 8.234667-0.853333 12.330666-1.365333 16.768-2.218667 33.664-4.437333 50.389334-7.082667l25.173333-3.968 25.173333-4.266667 0.341334-0.085333a1.493333 1.493333 0 0 0 1.237333-1.450667c-0.042667-0.768-0.725333-1.408-1.621333-1.408z m-219.648 218.112c0 166.101333-67.712 198.570667-184.746667 198.570667-117.034667 0-184.789333-32.469333-184.789333-198.570667 0-122.666667 120.32-173.525333 184.789333-173.525333 64.426667 0 184.746667 50.858667 184.746667 173.525333z" fill="#000000" fill-opacity=".3" p-id="2455"></path></svg>